<svg xmlns="http://www.w3.org/2000/svg" viewBox="0 0 64 64" width="64" height="64">
  <circle cx="32" cy="32" r="30" fill="#6a994e" opacity="0.2"/>
  <path d="M32 12 C28 12, 24 16, 24 24 C24 28, 26 32, 28 35 L28 48 C28 50, 30 52, 32 52 C34 52, 36 50, 36 48 L36 35 C38 32, 40 28, 40 24 C40 16, 36 12, 32 12 Z" fill="#6a994e"/>
  <ellipse cx="26" cy="20" rx="6" ry="8" fill="#a7c957" transform="rotate(-30 26 20)"/>
  <ellipse cx="38" cy="20" rx="6" ry="8" fill="#a7c957" transform="rotate(30 38 20)"/>
  <circle cx="32" cy="24" r="4" fill="#ffd700"/>
</svg>
